<?xml version="1.0" encoding="iso-8859-1"?>
<!-- Uploaded to: SVG Repo, www.svgrepo.com, Generator: SVG Repo Mixer Tools -->
<svg height="800px" width="800px" version="1.1" id="Layer_1" xmlns="http://www.w3.org/2000/svg" xmlns:xlink="http://www.w3.org/1999/xlink" 
	 viewBox="0 0 512 512" xml:space="preserve">
<path style="fill:#981700;" d="M360.58,403.53v0.031c-0.429,0-0.854-0.012-1.282-0.016c-0.427,0.003-0.854,0.016-1.282,0.016v-0.031
	c-82.915-1.32-149.712-66.468-149.712-146.656c0-124.879,68.744-98.244,150.994-97.966c82.251-0.279,150.994-26.913,150.994,97.966
	C510.292,337.063,443.495,402.21,360.58,403.53z"/>
<path style="fill:#7A1700;" d="M510.292,256.875c0,80.188-66.797,145.336-149.712,146.656v0.031c-0.429,0-0.855-0.012-1.282-0.016
	c-0.427,0.003-0.854,0.016-1.282,0.016v-0.031c-79.032-1.258-143.42-60.506-149.278-135.494c19.867,6.422,41.05,9.906,63.048,9.906
	c82.447,0,153.525-48.738,186.158-119.031C489.857,165.749,510.292,188.793,510.292,256.875z"/>
<path style="fill:#CAEEC5;" d="M177.779,445.618c-91.943,0-167.162-75.228-167.162-167.17v-55.723h334.325v55.723
	C344.941,370.389,269.713,445.618,177.779,445.618L177.779,445.618L177.779,445.618z"/>
<path style="fill:#5B5B5B;" d="M164.527,406.18c-13.935,8.047-31.914,3.23-39.958-10.704l-12.138-21.023
	c-6.866-11.897-4.352-26.739,5.203-35.832L1.182,135.605c-2.443-4.258-0.978-9.697,3.27-12.146
	c4.247-2.448,9.673-0.981,12.117,3.278l117.098,204.141c11.457-1.591,23.313,3.731,29.429,14.325l12.136,21.02
	C183.274,380.156,178.462,398.138,164.527,406.18z"/>
<path style="fill:#F4BB19;" d="M330.987,345.092c-25.873,59.022-84.927,100.526-153.209,100.526
	c-87.023,0-159.052-67.397-166.512-152.568c33.241-9.659,70.883-15.107,110.761-15.107
	C210.649,277.942,288.234,304.846,330.987,345.092z"/>
<path style="fill:#5B7F81;" d="M51.155,222.724h20.474l62.039,108.154c11.457-1.591,23.313,3.731,29.429,14.325l12.136,21.02
	c8.042,13.933,3.23,31.914-10.705,39.957c-13.935,8.047-31.914,3.23-39.958-10.704l-12.138-21.023
	c-6.866-11.897-4.352-26.739,5.203-35.832L51.155,222.724z"/>
<path style="fill:#97BAA8;" d="M2.278,281.227v-58.504h22.186v58.504c0,84.515,68.777,153.272,153.315,153.272
	s153.315-68.757,153.315-153.272v-58.504h22.186v58.504c0,96.529-78.98,175.51-175.501,175.51
	C81.249,456.737,2.278,377.756,2.278,281.227z"/>
<path style="fill:#FFBB5E;" d="M116.361,93.49c12.478,18.612,15.163,51.863-0.936,69.82c-1.752,1.954-4.173,2.95-6.604,2.95
	c-2.114,0-4.234-0.751-5.929-2.278c-3.645-3.283-3.946-8.908-0.669-12.562c9.121-10.174,8.828-33.953-0.594-48.006
	C92.68,90.068,88.927,70.932,92.067,54.66c0.931-4.823,5.59-7.977,10.398-7.044c4.812,0.933,7.958,5.6,7.028,10.423
	C107.233,69.747,109.994,83.994,116.361,93.49z M160.734,93.49c-6.368-9.495-9.128-23.742-6.867-35.452
	c0.931-4.823-2.216-9.49-7.028-10.423c-4.808-0.932-9.468,2.221-10.398,7.044c-3.14,16.27,0.613,35.408,9.562,48.754
	c9.422,14.053,9.718,37.833,0.597,48.009c-3.276,3.654-2.976,9.278,0.67,12.562c1.695,1.527,3.816,2.278,5.928,2.278
	c2.431,0,4.852-0.995,6.604-2.951C175.899,145.355,173.213,112.103,160.734,93.49z"/>
<path style="fill:#7E9332;" d="M362.109,156.693c1.15,4.776-1.782,9.581-6.547,10.733c-0.699,0.169-1.399,0.249-2.088,0.249
	c-4.006,0-7.64-2.737-8.621-6.812l-14.339-59.595c-1.15-4.776,1.782-9.581,6.547-10.733c4.765-1.151,9.559,1.786,10.707,6.561
	L362.109,156.693z M511.003,1.004c-31.715-4.109-62.605,4.36-84.459,26.202c-21.85,21.846-30.335,52.73-26.239,84.447
	c31.715,4.112,62.602-4.36,84.456-26.203C506.615,63.608,515.099,32.721,511.003,1.004z"/>
<path style="fill:#9E9D9D;" d="M373.306,503.104c0,4.913-3.974,8.895-8.874,8.895H8.875C3.974,512,0,508.017,0,503.104
	s3.974-8.895,8.874-8.895h355.556C369.333,494.209,373.306,498.191,373.306,503.104z M501.418,444.435H324.565
	c-4.902,0-8.874,3.982-8.874,8.895c0,4.913,3.974,8.895,8.874,8.895h176.853c4.902,0,8.874-3.982,8.874-8.895
	C510.292,448.417,506.319,444.435,501.418,444.435z"/>
<path style="fill:#FF7B00;" d="M212.457,324.283h-1.674c-4.902,0-8.874-3.982-8.874-8.895c0-4.913,3.974-8.895,8.874-8.895h1.674
	c4.902,0,8.874,3.982,8.874,8.895C221.331,320.3,217.359,324.283,212.457,324.283z M274.053,338.71h-1.671
	c-4.902,0-8.874,3.982-8.874,8.895c0,4.913,3.974,8.895,8.874,8.895h1.671c4.902,0,8.874-3.982,8.874-8.895
	C282.927,342.692,278.955,338.71,274.053,338.71z M226.185,382.461h-1.674c-4.902,0-8.874,3.982-8.874,8.895
	c0,4.913,3.974,8.895,8.874,8.895h1.674c4.902,0,8.874-3.982,8.874-8.895C235.06,386.444,231.087,382.461,226.185,382.461z
	 M61.989,315.956h-1.674c-4.902,0-8.874,3.982-8.874,8.895s3.974,8.895,8.874,8.895h1.674c4.902,0,8.874-3.982,8.874-8.895
	S66.891,315.956,61.989,315.956z"/>
</svg>